<svg viewBox="280.1621621621621 459.89999999999986 537.2972972972975 536.5500000000005" xmlns="http://www.w3.org/2000/svg" overflow="visible" xmlns:xlink="http://www.w3.org/1999/xlink" width="537.2972972972975px" height="536.5500000000005px"><g id="Master/Character/Avatar" stroke="none" stroke-width="1" fill="none" fill-rule="evenodd"><g id="Head" transform="translate(332.000000, 483.000000) scale(0.9978902953586498 1)"><g id="Head/Dreads 2" stroke="none" stroke-width="1" fill="none" fill-rule="evenodd"><path d="M242.041161,75.2596156 C298.821805,75.2596156 357.551668,119.271611 378.365264,147.356837 C402.432055,179.831825 421.416954,335.7285 412.510727,388.627648 C403.6045,441.526795 359.365264,499.183765 282.566771,499.183765 C205.768277,499.183765 159.031094,489.72438 157.157053,475.984472 C155.907692,466.824533 139.023041,436.751409 106.5031,385.7651 C73.2430134,376.410121 56.5475248,360.55971 56.4166341,338.213866 C56.2876114,315.868022 65.1995229,300.630067 83.1523686,292.5 C76.7512999,204.313833 81.6113554,148.741029 97.7325351,125.781589 C121.914305,91.3424282 185.260516,75.2596156 242.041161,75.2596156 Z" id="Skin" fill="#d08b5b"/><path d="M203.757589,-10.1548198 C211.394088,-19.1415203 224.863354,-10.6470279 224.558188,-0.826799492 C227.606705,-0.0015964467 231.202634,2.84551015 232.59004,6.55736294 C235.591366,6.36276904 238.616813,6.95903807 241.342336,8.51787056 L241.916763,7.80997624 C251.361773,-3.72123383 263.860675,-13.6163645 276.758409,-5.12451523 C280.268721,-2.81349577 281.840315,1.00581761 281.06639,5.14564523 L281.006955,5.4387377 L281.291987,4.16054636 C281.5831,2.94610575 281.148882,5.3760655 280.986356,5.8902766 L280.965719,5.9486066 C280.624898,6.8143934 280.285125,7.25040863 279.976813,7.90495178 C293.180762,-1.47613959 313.287133,4.01515482 302.693352,22.1748249 L307.001266,20.4945822 C321.907285,14.7341529 340.441179,8.54839162 354.02946,18.905231 C360.103423,24.7482513 353.361449,32.5392919 347.172131,34.4279975 L348.236059,34.2500782 C360.112723,32.2332423 384.89048,27.2483251 388.430409,42.709165 C389.703508,48.2722614 385.991176,52.3379213 381.306715,54.5762716 C391.217804,54.5398503 400.992565,56.1736066 409.568683,61.0103579 C417.726376,66.8075914 411.133316,76.400967 402.602291,75.9826421 C405.247066,79.2532766 406.124813,84.7882766 403.571273,88.3211447 C408.419328,89.5938096 412.891955,91.2306878 417.014322,93.7822614 L418.147313,93.9280347 C426.387892,94.956028 435.789392,95.5678855 440.322318,103.660764 C446.99403,121.221043 423.237198,120.521754 413.039819,114.354063 C413.644908,115.337439 414.093744,116.411348 414.345427,117.558099 L417.649472,118.48536 C430.115567,121.952527 444.22383,125.782945 452.250022,136.274495 C455.928796,142.312109 450.809133,152.572515 443.117054,150.738962 C463.960648,160.665332 455.971792,186.814799 435.58752,173.211957 C434.634269,174.094393 433.474427,174.749977 432.260054,175.039266 L436.5612,177.371104 C447.486294,183.352377 460.62517,191.540705 458.34391,205.120155 C456.174188,212.306602 446.205421,210.993353 441.138192,208.243023 C449.991435,215.855576 458.344792,224.098412 465.933031,233.00978 L468.033047,235.507669 C473.934559,242.580731 484.201335,255.601519 473.079983,262.405688 C459.36952,269.384013 452.536312,248.777871 444.562137,241.422845 C450.938121,256.425307 430.209882,266.887591 422.975028,251.776906 C421.759606,251.990231 420.537892,252.012084 419.340297,251.850789 C425.577855,258.46282 442.447995,303.703302 421.463877,293.783175 C418.122222,290.247172 415.189261,286.383152 412.493523,282.327065 C415.862245,308.247299 418.326141,334.289629 419.919731,360.350706 L420.486794,369.798471 C421.066435,379.597307 421.504814,389.438314 420.4041,399.2051 C419.1331,410.5751 415.8641,421.2451 410.9141,431.5451 C406.3531,441.0451 400.4731,449.8451 393.7441,457.9351 C390.1441,462.2651 386.3241,466.4751 381.6241,469.6441 C377.8831,472.1651 373.5131,473.8251 369.3031,475.4251 C362.4541,482.2651 353.6641,487.4351 345.0741,491.5651 C330.9141,498.3551 315.5641,502.1051 300.0341,503.9851 C284.1541,505.8941 268.1141,505.4351 252.3641,502.7051 C237.3141,500.1051 221.1831,493.4551 211.9141,480.7851 C211.1141,479.6951 212.6031,478.6651 213.5831,479.1151 C240.4841,491.5651 270.7131,494.8151 300.0341,490.8851 C313.7131,489.0551 327.1731,485.2751 339.6641,479.4051 C350.2041,474.4551 359.0931,467.2551 368.5531,460.7351 C370.3941,458.2851 372.2531,455.8751 374.3741,453.6351 L377.682932,450.165223 C380.156183,447.558828 382.584638,444.917408 384.7931,442.0651 C391.6141,433.2751 397.2631,423.3051 400.9941,412.8151 C408.2497,392.395671 406.287498,370.230447 405.005225,348.950388 L404.8941,347.0751 C403.5741,324.3151 401.4231,301.6351 398.4441,279.0351 C397.205205,269.630134 395.826578,260.240712 394.316833,250.87186 C391.897173,246.935469 389.31268,243.126402 386.420086,239.558074 C388.774376,248.706069 380.622975,261.422312 370.627991,255.384698 C359.182681,245.600891 359.736385,229.808607 350.144095,217.828074 C340.200496,202.468683 271.592604,172.596957 251.194699,168.402261 C254.481267,173.18282 260.48392,176.512769 261.88391,182.154952 C286.969421,204.318886 246.078182,216.117312 233.309435,184.530662 C233.591531,195.047058 234.65804,205.471881 236.9966,215.736449 C240.403766,225.162287 243.078953,252.479317 225.993833,244.235612 C217.815166,246.597794 211.578656,239.631957 210.553046,231.772236 C204.644774,249.533353 210.232149,277.908683 199.399269,290.998505 C196.077046,294.441881 190.94375,292.149419 189.216571,288.217997 C179.198516,285.593581 180.053192,273.914825 178.83777,265.554571 C169.700608,298.875916 158.264735,322.004495 156.689616,356.765003 C163.759827,366.829774 148.251924,374.231627 141.595942,366.165865 C132.254287,352.669165 140.868157,334.218124 143.066194,319.443556 C140.438198,319.308277 137.837468,318.141754 135.667746,315.593302 C134.484833,320.230256 135.164378,326.338632 135.562877,331.367896 C129.638875,354.527693 107.118439,339.692769 108.049669,320.906652 C107.077121,326.206506 106.340775,331.560797 105.873103,336.954058 C110.22287,341.957748 113.446824,347.947867 115.3534,354.3051 C116.724817,358.898683 112.055348,361.652963 108.491294,360.986432 C106.594274,367.456819 98.3689039,372.125733 92.9591412,365.941094 C87.6124189,360.533105 86.6832044,352.718073 86.256413,344.937435 C85.5123221,344.146317 85.0582794,343.110056 85.1334,341.8551 C85.201514,340.6763 85.4912405,339.675649 85.9511975,338.834252 C85.8609109,337.244131 85.7467235,335.683167 85.5732771,334.174419 C81.4336409,347.05041 84.1270344,360.542109 84.4890225,373.729161 C91.7998706,377.845872 100.14552,379.605317 108.52862,381.343061 L109.7441,381.5951 C112.3331,382.1351 113.1541,385.9951 111.2041,387.6151 C116.3941,392.6951 120.8741,398.7551 125.2441,404.3451 C131.0466,411.760933 136.596176,419.470864 141.994503,427.1976 L145.162684,431.736512 C154.417804,444.918943 167.213572,462.776892 161.4841,479.0151 C160.7041,481.2451 157.4441,482.0451 156.1731,479.7051 C152.0031,472.0051 149.6731,463.5251 145.7131,455.7351 C141.8241,448.0951 136.9841,441.0151 132.1831,433.9351 L129.414095,429.832137 C124.803794,422.979822 120.236433,416.053433 116.0031,408.9951 L113.055323,404.107864 C110.285593,399.492967 107.544153,394.724047 105.5031,389.7651 C98.2331648,391.517341 90.6256761,390.259965 83.6535591,387.228769 L83.5646175,387.71343 L83.3878247,388.584749 C82.392626,392.776322 76.6101959,395.64216 72.9156909,392.900155 C64.0738629,386.233793 60.473747,376.311502 59.5356807,365.702471 C57.753576,362.705975 56.2428912,359.541384 55.0109382,356.266658 C54.4300101,362.800453 51.9088328,369.134964 44.1419667,368.938048 C30.6632629,367.831881 29.3408755,355.102109 32.9850438,342.441018 C17.0283055,347.31419 15.1585063,324.748581 20.1942751,312.8565 C18.3244759,312.297693 16.5931026,311.184241 15.6020986,309.683683 L14.7751482,311.133841 C11.708395,316.443248 8.23196471,321.598397 3.38705598,324.35419 C-3.38218337,328.203404 -13.2240596,323.435332 -12.7741753,314.95749 C-11.3248974,301.142363 0.785277079,290.619723 8.15750832,279.547642 C6.84455903,279.732871 5.48022434,279.686043 4.14210669,279.436297 C-10.5929176,287.656069 -17.6264247,268.310104 -12.4364998,257.101703 C-8.63293185,247.031728 -1.74938621,238.371779 5.62913712,230.737871 L3.46613744,232.030051 C-0.436278206,234.328024 -4.78949016,236.546693 -9.07967018,235.645383 C-37.1507777,254.09018 -46.3644937,223.068581 -14.8641976,213.373226 L-14.8746844,213.228581 L-14.8746844,213.228581 C-18.0364592,210.179596 -19.4081347,205.354292 -16.9500252,200.53419 C-28.5043984,204.592566 -45.000159,195.410231 -34.8153639,182.860485 C-28.1719663,176.605383 -20.3351692,171.224393 -11.6468426,168.408505 C-12.0799481,166.105637 -12.2204714,163.762185 -12.0411469,161.404165 L-12.5595166,161.474674 C-18.0445238,162.264272 -24.8071667,164.503947 -28.1897939,158.597642 C-29.9054369,155.623581 -29.7040901,150.722312 -26.8915262,148.410079 C-17.2080008,140.448378 -6.16014077,133.825942 5.84097079,131.14117 C6.28141704,129.680155 6.74073955,128.227464 7.22627911,126.782058 C-3.0109501,126.591627 -14.5055485,112.993987 -2.74563367,105.289317 C7.59226897,100.021754 18.2426787,96.6335305 29.9155529,96.9477944 C23.0718572,90.1994442 27.1124272,77.9670838 36.2128856,76.086703 C30.2532284,63.3964746 44.9767172,56.8489619 55.959559,58.8500533 C55.5558166,53.212033 58.5749708,46.9277944 64.3825692,45.512566 C61.3361493,27.6713223 80.2281473,29.3591904 92.0646158,33.5882259 C88.1005996,26.7097995 92.1747274,18.6180228 99.1673359,16.2058909 C110.618938,13.6137335 121.574514,24.5213985 130.294301,31.210434 C127.321289,24.2321091 129.828687,17.7980228 136.910433,15.0175152 C144.204013,12.1631244 152.062833,17.6793934 158.150429,21.4276675 C161.460068,17.2714746 167.111413,15.9166015 172.179691,16.173632 C172.721859,14.6127183 173.515711,13.3109162 174.53503,12.2817538 C174.506715,2.66444416 190.880829,-2.62289086 196.596143,6.3357132 C197.568271,0.106626904 200.131249,-5.88728173 203.757589,-10.1548198 Z M408.613334,164.279368 L408.802097,165.314774 L408.802097,165.314774 C409.044342,165.52914 409.271906,165.754952 409.504713,165.97452 C410.234596,166.147261 410.93931,166.329368 411.60732,166.515637 C410.634143,165.727896 409.631604,164.998429 408.613334,164.279368 Z M421.253092,139.040434 L421.030539,139.3483 C420.99267,139.399097 420.953869,139.449047 420.91332,139.497261 C421.530644,139.731052 422.146103,139.969929 422.759388,140.216361 L423.677644,140.591982 L424.001687,140.734546 C423.089334,140.162211 422.173835,139.595079 421.253092,139.040434 Z M273.85461,11.983099 L273.30261,12.1200692 C273.126563,12.1628642 272.960084,12.2026675 272.808026,12.2390888 C272.751397,12.2536574 272.698963,12.259901 272.647577,12.2807132 L272.792295,12.2494949 L272.792295,12.2494949 C272.531174,12.4482513 272.188255,12.6823883 271.903013,12.869698 C272.183011,12.8468046 272.461961,12.8197487 272.743007,12.8041396 C273.110046,12.5294188 273.481279,12.2557386 273.85461,11.983099 Z" id="Ink" fill="#000"/></g></g><g id="Face" transform="translate(491.000000, 669.000000) scale(1 1)" fill="#000"><g id="Face/Monster" stroke="none" stroke-width="1" fill="none" fill-rule="evenodd"><path d="M111.356433,252.418685 L100.7903,212.0821 L102.494368,212.345349 C119.255697,214.980164 127.636361,217.684872 127.636361,220.459471 L127.629295,220.648802 C127.407896,223.773814 121.983608,234.363775 111.356433,252.418685 Z M208.622476,220.799543 L204.8803,249.640803 L185.389762,228.277354 L208.622476,220.799543 Z" id="teeth" fill="#FFF"/><ellipse id="eye" fill="#FFF" cx="98.5" cy="113" rx="39.5" ry="36"/><ellipse id="eye" fill="#FFF" cx="157" cy="76.5" rx="36" ry="35.5"/><path d="M206,142 C222.016258,142 235,127.673112 235,110 C235,92.326888 222.016258,80.5297819 206,80.5297819 C189.983742,80.5297819 177,92.326888 177,110 C177,127.673112 189.983742,142 206,142 Z" id="eye" fill="#FFF"/><path d="M101.1623,210.6721 C108.414983,209.2721 117.438041,212.321832 124.671223,213.658183 L125.2103,213.7551 C133.9813,215.2871 142.7333,217.1391 151.6013,218.0431 C160.0673,218.9081 168.7133,219.0631 177.1803,218.0901 C181.2463,217.6221 185.2773,216.8261 189.2273,215.7581 C190.9173,215.3011 192.5933,214.7911 194.2493,214.2251 L194.436545,214.153427 C195.65316,213.651157 198.943084,211.75837 198.9043,212.8131 C199.8293,211.7461 201.1033,210.9891 202.5023,210.6211 C204.4763,210.1021 207.0103,210.5891 208.6623,211.9851 C210.8113,210.2831 214.0353,211.5041 215.4763,213.5421 C217.947614,217.0373 217.143438,221.13362 216.824121,225.188445 L216.7973,225.5461 C216.52605,229.3681 216.110862,233.164069 215.598632,236.957454 L215.3733,238.5831 C214.5763,244.1941 214.3573,253.4481 207.5583,255.2871 C202.1808,256.742933 197.260244,251.209878 193.79374,246.819299 L191.8963,244.3871 C189.6493,241.5361 187.6093,238.6011 185.9653,235.3601 C185.2163,233.8851 184.4923,232.3741 183.8653,230.8431 C183.7863,230.6501 183.7283,230.4771 183.6683,230.3031 C173.6963,231.6451 163.4883,231.4531 153.4903,230.1351 C147.1603,229.3001 140.9243,228.0941 134.7823,226.4741 L132.01131,231.482887 C128.768572,237.323989 125.479522,243.147211 122.0223,248.8561 L121.754037,249.290988 C118.51779,254.43977 113.098834,259.59647 106.6923,255.7401 C100.9593,252.2881 100.7153,244.4361 100.1113,238.5771 C99.707925,234.663225 99.3811125,230.722553 99.2239816,226.787241 L99.1673,225.1011 C99.0643,221.2851 98.4433,216.8621 99.9103,213.2931 C100.1233,212.7731 100.8703,212.3731 101.3203,212.9201 C104.3853,216.6461 105.3123,222.4211 106.6363,226.9941 C108.1103,232.0821 110.2453,237.6391 111.0113,242.9171 L111.2253,242.5451 L111.2253,242.5451 C111.9798,241.1116 112.74955,239.68585 113.52305,238.2621 L115.8433,233.9911 C117.9243,230.1351 120.0433,226.3031 122.1813,222.4801 C119.739967,221.562767 117.3213,220.577433 114.912263,219.575656 L109.445069,217.290086 C106.322106,215.970989 103.1378,214.4821 100.7903,212.0821 C100.3743,211.6571 100.5193,210.7951 101.1623,210.6721 Z M204.8803,224.7601 C199.4933,226.9501 193.9213,228.5301 188.2483,229.5781 C188.6143,229.9531 188.9793,230.3281 189.3193,230.7221 C190.6543,232.2671 192.07055,233.750989 193.495133,235.218327 L194.3503,236.0971 C196.5323,238.3361 199.8103,242.0231 203.1553,244.1661 L203.33612,243.198698 C203.365722,243.031975 203.388925,242.887225 203.4013,242.7751 L203.757596,239.593989 C203.8153,239.063656 203.8713,238.5331 203.9243,238.0021 C204.2123,235.1331 204.4413,232.2581 204.6813,229.3851 C204.8073,227.8711 204.8373,226.3161 204.8803,224.7601 Z M141.13,39.8926 C153.96,34.4126 169.187,36.9998509 180.238,45.2776 C191.546,53.7486 196.491,67.5206 197.145,81.2606 C206.088,73.6246 218.967,79.4046 226.499,86.5596 C235.191,94.8166 239.587,107.2776 237.561,119.1036 C235.542,130.8896 227.013,141.2876 215.474,144.7926 C209.953,146.4696 203.8,146.5076 198.246,144.9476 C196.36,144.4166 194.049,143.5946 191.914,142.4496 C192.036,142.9396 192.16,143.4306 192.276,143.9196 C195.047,155.6486 196.618,168.8326 192.46,180.4316 C185.777,199.0706 162.04,209.5046 147.22,192.9606 C141.401,186.4656 136.878,176.2936 137.23,167.4386 C137.415,162.7856 140.051,157.4026 145.493,157.7176 C149.712849,157.960921 151.713859,161.492552 150.633739,165.229784 L150.568,165.4456 C148.28,172.5906 152.186,182.9146 157.845,187.7876 C166.523,195.2606 178.432,188.7576 183.177,179.9946 C188.707,169.7816 188.034,156.6876 186.266,145.5766 C184.53,134.6666 180.659,124.6876 176.55,114.5926 C176.114,114.6716 175.672,114.7446 175.22,114.8056 C167.048,115.9146 150.421,116.3326 141.392,110.4126 C142.362,119.5496 140.459,128.9556 135.268,136.6926 C129.484,145.3146 120.77,149.8776 110.628,151.2756 C100.778,152.6356 89.36,152.9106 79.635,150.5766 C58.926,145.6066 51.624,120.0396 57.887,101.5836 C61.592,90.6666 71.93,80.8476 83.421,78.3676 C89.341,74.4736 97.29,73.3206 104.122,73.8516 C114.326,74.6466 124.376,79.0556 131.21,86.7986 C133.821,89.7566 135.968,93.1056 137.623,96.6896 C138.179,96.2516 138.827,95.9226 139.559,95.7506 C140.702,95.4826 141.702,95.4226 142.82,95.8166 C143.377,96.0136 144.18,96.7096 144.663,97.1616 L145.766505,98.4575776 C147.119358,100.034235 148.40575,101.356517 150.814,102.3366 C157.528,105.0696 166.634,105.6626 173.767,105.1036 C191.967,103.6796 189.675,79.5726 185.192,67.1876 C179.882,52.5156 164.662,43.3886 149.178,45.9946 C142.525,47.1136 136.178,50.6546 131.308,55.2816 C125.872,60.4476 123.544,66.6876 120.283,73.2266 C120.09,73.6136 119.424,73.5296 119.341,73.1026 C116.661,59.3146 129.369,44.9166 141.13,39.8926 Z M44.1941,151.0551 C43.6411,150.4061 44.3671,149.2651 45.1591,149.8031 C50.9601,153.7441 57.4111,156.5881 64.4241,157.3571 C67.7181,157.7171 71.0381,157.7421 74.3191,157.2371 C77.1141,156.8051 79.6331,155.9531 82.4231,156.7231 C83.9081,157.1331 84.1781,158.8561 83.2711,159.9361 C79.0561,164.9531 68.6791,163.6131 63.0211,162.2681 C55.7041,160.5301 49.0711,156.7851 44.1941,151.0551 Z M239.4055,141.895 C242.2535,140.13 245.6435,143.625 243.9595,146.448 C239.6355,153.691 227.1025,154.281 219.8315,152.547 C219.2625,152.413 219.3925,151.52 219.9685,151.536 C224.1475,151.639 227.9245,150.836 231.5245,148.656 C234.6005,146.793 236.4355,143.735 239.4055,141.895 Z M100.44276,83.9956828 L99.872,84.0006 C93.224,84.1076 87.136,86.6426 80.73,87.9826 C80.199,88.0946 79.666,88.0376 79.185,87.8616 C71.383,93.0666 66.005,101.2506 65.275,112.0196 C64.769,119.4786 66.59,127.6056 71.019,133.7266 C76.0601148,140.693436 84.1808995,141.768486 92.1782594,141.976264 L92.991,141.9946 C108.109,142.2896 124.741,141.3966 130.13,124.4946 C134.118,111.9856 129.859,96.7996 118.75,89.3066 C113.354686,85.6676286 106.91095,83.9896106 100.44276,83.9956828 Z M222.242,92.9666 L221.798392,92.4488816 C215.868887,85.6456933 206.467333,79.4493407 197.198,82.8756 L197.225037,84.0213778 C197.228333,84.2124889 197.230333,84.4036 197.23,84.5946 C197.202,97.7326 192.111,109.9936 179.598,113.8486 C182.955,118.6376 185.652,123.9516 187.812,129.4666 C188.574,128.9686 189.501,128.6526 190.577,128.5436 C194.982,128.0976 197.506,132.2346 201.326,133.7776 C204.902,135.2236 208.958,135.5966 212.733,134.8496 C220.991,133.2166 226.785,126.0956 228.815,118.1936 C231.11,109.2606 228.078,99.8956 222.242,92.9666 Z M96.5345,104.0237 C99.2883548,99.3719581 106.081682,100.045196 108.804889,104.146253 L108.9355,104.3507 L108.9645,104.3127 C113.5005,110.1907 111.3085,119.4747 104.7225,122.7797 C99.4395,125.4287 92.7205,124.7337 89.2085,119.5767 C88.4215,118.4207 87.9165,117.0607 87.7315,115.6837 C87.6055,114.7467 87.6775,113.8107 87.8875,112.8797 L87.834375,113.097575 C87.9385,112.6277 88.1035,111.8912 88.1465,111.7157 C88.6105,109.8197 89.7235,107.7857 91.1165,106.4127 C92.5515,104.9987 94.5445,104.1387 96.5345,104.0237 Z M209.7026,99.1917 C212.1416,99.1917 214.3056,100.2117 216.0676,101.8287 C218.5736,104.1297 218.9226,107.4417 218.3816,110.5847 C218.2156,111.5437 217.9876,112.4707 217.7486,113.4147 L217.542822,114.268478 C217.506822,114.410256 217.468267,114.551033 217.4246,114.6897 C217.2746,115.2747 217.0356,115.8117 216.7516,116.3257 C215.7086,120.2087 211.4856,122.1367 207.7626,121.2897 C206.0106,120.8907 204.2636,119.4367 203.3716,117.9127 C203.0776,117.4107 202.8716,116.9107 202.7256,116.4087 L202.0006,114.6897 L202.0006,114.6897 C201.8646,114.2777 201.7796,113.8357 201.6706,113.4147 C201.4276,112.4717 201.1936,111.5427 201.0246,110.5847 C200.4496,107.3367 200.9076,104.2587 203.3386,101.8287 C204.9706,100.1957 207.3956,99.1917 209.7026,99.1917 Z M155.98,65.5082 C160.213,64.9402 164.524,66.9122 166.713,70.6512 C168.615,73.9012 168.607,78.2742 166.713,81.5242 L166.553,81.7992 L166.553,81.7992 C163.064,87.7852 154.927,88.5532 150.032,83.9282 L149.795,83.7042 L149.795,83.7042 C146.647,80.7312 145.938,75.8002 147.568,71.9382 C149.058,68.4062 152.182,66.0192 155.98,65.5082 Z" id="Ink" fill="#000"/></g></g><g id="Beard" transform="translate(454.999934, 820.999659) scale(1 1)" fill="#000"><g id="Beard/None" stroke="none" stroke-width="1" fill="none" fill-rule="evenodd" fill-opacity="0"/></g><g id="Mask" transform="translate(360.000000, 783.000000) scale(1 1)" fill="#000"><g id="Mask/None" stroke="none" stroke-width="1" fill="none" fill-rule="evenodd" fill-opacity="0"/></g><g id="Accessories" transform="translate(379.000000, 724.000000) scale(1 1)" fill="#000"><g id="Accessories/None" stroke="none" stroke-width="1" fill="none" fill-rule="evenodd" fill-opacity="0"/></g></g></svg>