<svg viewBox="280.1621621621621 459.89999999999986 537.2972972972975 536.5500000000005" xmlns="http://www.w3.org/2000/svg" overflow="visible" xmlns:xlink="http://www.w3.org/1999/xlink" width="537.2972972972975px" height="536.5500000000005px"><g id="Master/Character/Avatar" stroke="none" stroke-width="1" fill="none" fill-rule="evenodd"><g id="Head" transform="translate(332.000000, 483.000000) scale(0.9978902953586498 1)"><g id="Head/Dreads 2" stroke="none" stroke-width="1" fill="none" fill-rule="evenodd"><path d="M242.041161,75.2596156 C298.821805,75.2596156 357.551668,119.271611 378.365264,147.356837 C402.432055,179.831825 421.416954,335.7285 412.510727,388.627648 C403.6045,441.526795 359.365264,499.183765 282.566771,499.183765 C205.768277,499.183765 159.031094,489.72438 157.157053,475.984472 C155.907692,466.824533 139.023041,436.751409 106.5031,385.7651 C73.2430134,376.410121 56.5475248,360.55971 56.4166341,338.213866 C56.2876114,315.868022 65.1995229,300.630067 83.1523686,292.5 C76.7512999,204.313833 81.6113554,148.741029 97.7325351,125.781589 C121.914305,91.3424282 185.260516,75.2596156 242.041161,75.2596156 Z" id="Skin" fill="#d08b5b"/><path d="M203.757589,-10.1548198 C211.394088,-19.1415203 224.863354,-10.6470279 224.558188,-0.826799492 C227.606705,-0.0015964467 231.202634,2.84551015 232.59004,6.55736294 C235.591366,6.36276904 238.616813,6.95903807 241.342336,8.51787056 L241.916763,7.80997624 C251.361773,-3.72123383 263.860675,-13.6163645 276.758409,-5.12451523 C280.268721,-2.81349577 281.840315,1.00581761 281.06639,5.14564523 L281.006955,5.4387377 L281.291987,4.16054636 C281.5831,2.94610575 281.148882,5.3760655 280.986356,5.8902766 L280.965719,5.9486066 C280.624898,6.8143934 280.285125,7.25040863 279.976813,7.90495178 C293.180762,-1.47613959 313.287133,4.01515482 302.693352,22.1748249 L307.001266,20.4945822 C321.907285,14.7341529 340.441179,8.54839162 354.02946,18.905231 C360.103423,24.7482513 353.361449,32.5392919 347.172131,34.4279975 L348.236059,34.2500782 C360.112723,32.2332423 384.89048,27.2483251 388.430409,42.709165 C389.703508,48.2722614 385.991176,52.3379213 381.306715,54.5762716 C391.217804,54.5398503 400.992565,56.1736066 409.568683,61.0103579 C417.726376,66.8075914 411.133316,76.400967 402.602291,75.9826421 C405.247066,79.2532766 406.124813,84.7882766 403.571273,88.3211447 C408.419328,89.5938096 412.891955,91.2306878 417.014322,93.7822614 L418.147313,93.9280347 C426.387892,94.956028 435.789392,95.5678855 440.322318,103.660764 C446.99403,121.221043 423.237198,120.521754 413.039819,114.354063 C413.644908,115.337439 414.093744,116.411348 414.345427,117.558099 L417.649472,118.48536 C430.115567,121.952527 444.22383,125.782945 452.250022,136.274495 C455.928796,142.312109 450.809133,152.572515 443.117054,150.738962 C463.960648,160.665332 455.971792,186.814799 435.58752,173.211957 C434.634269,174.094393 433.474427,174.749977 432.260054,175.039266 L436.5612,177.371104 C447.486294,183.352377 460.62517,191.540705 458.34391,205.120155 C456.174188,212.306602 446.205421,210.993353 441.138192,208.243023 C449.991435,215.855576 458.344792,224.098412 465.933031,233.00978 L468.033047,235.507669 C473.934559,242.580731 484.201335,255.601519 473.079983,262.405688 C459.36952,269.384013 452.536312,248.777871 444.562137,241.422845 C450.938121,256.425307 430.209882,266.887591 422.975028,251.776906 C421.759606,251.990231 420.537892,252.012084 419.340297,251.850789 C425.577855,258.46282 442.447995,303.703302 421.463877,293.783175 C418.122222,290.247172 415.189261,286.383152 412.493523,282.327065 C415.862245,308.247299 418.326141,334.289629 419.919731,360.350706 L420.486794,369.798471 C421.066435,379.597307 421.504814,389.438314 420.4041,399.2051 C419.1331,410.5751 415.8641,421.2451 410.9141,431.5451 C406.3531,441.0451 400.4731,449.8451 393.7441,457.9351 C390.1441,462.2651 386.3241,466.4751 381.6241,469.6441 C377.8831,472.1651 373.5131,473.8251 369.3031,475.4251 C362.4541,482.2651 353.6641,487.4351 345.0741,491.5651 C330.9141,498.3551 315.5641,502.1051 300.0341,503.9851 C284.1541,505.8941 268.1141,505.4351 252.3641,502.7051 C237.3141,500.1051 221.1831,493.4551 211.9141,480.7851 C211.1141,479.6951 212.6031,478.6651 213.5831,479.1151 C240.4841,491.5651 270.7131,494.8151 300.0341,490.8851 C313.7131,489.0551 327.1731,485.2751 339.6641,479.4051 C350.2041,474.4551 359.0931,467.2551 368.5531,460.7351 C370.3941,458.2851 372.2531,455.8751 374.3741,453.6351 L377.682932,450.165223 C380.156183,447.558828 382.584638,444.917408 384.7931,442.0651 C391.6141,433.2751 397.2631,423.3051 400.9941,412.8151 C408.2497,392.395671 406.287498,370.230447 405.005225,348.950388 L404.8941,347.0751 C403.5741,324.3151 401.4231,301.6351 398.4441,279.0351 C397.205205,269.630134 395.826578,260.240712 394.316833,250.87186 C391.897173,246.935469 389.31268,243.126402 386.420086,239.558074 C388.774376,248.706069 380.622975,261.422312 370.627991,255.384698 C359.182681,245.600891 359.736385,229.808607 350.144095,217.828074 C340.200496,202.468683 271.592604,172.596957 251.194699,168.402261 C254.481267,173.18282 260.48392,176.512769 261.88391,182.154952 C286.969421,204.318886 246.078182,216.117312 233.309435,184.530662 C233.591531,195.047058 234.65804,205.471881 236.9966,215.736449 C240.403766,225.162287 243.078953,252.479317 225.993833,244.235612 C217.815166,246.597794 211.578656,239.631957 210.553046,231.772236 C204.644774,249.533353 210.232149,277.908683 199.399269,290.998505 C196.077046,294.441881 190.94375,292.149419 189.216571,288.217997 C179.198516,285.593581 180.053192,273.914825 178.83777,265.554571 C169.700608,298.875916 158.264735,322.004495 156.689616,356.765003 C163.759827,366.829774 148.251924,374.231627 141.595942,366.165865 C132.254287,352.669165 140.868157,334.218124 143.066194,319.443556 C140.438198,319.308277 137.837468,318.141754 135.667746,315.593302 C134.484833,320.230256 135.164378,326.338632 135.562877,331.367896 C129.638875,354.527693 107.118439,339.692769 108.049669,320.906652 C107.077121,326.206506 106.340775,331.560797 105.873103,336.954058 C110.22287,341.957748 113.446824,347.947867 115.3534,354.3051 C116.724817,358.898683 112.055348,361.652963 108.491294,360.986432 C106.594274,367.456819 98.3689039,372.125733 92.9591412,365.941094 C87.6124189,360.533105 86.6832044,352.718073 86.256413,344.937435 C85.5123221,344.146317 85.0582794,343.110056 85.1334,341.8551 C85.201514,340.6763 85.4912405,339.675649 85.9511975,338.834252 C85.8609109,337.244131 85.7467235,335.683167 85.5732771,334.174419 C81.4336409,347.05041 84.1270344,360.542109 84.4890225,373.729161 C91.7998706,377.845872 100.14552,379.605317 108.52862,381.343061 L109.7441,381.5951 C112.3331,382.1351 113.1541,385.9951 111.2041,387.6151 C116.3941,392.6951 120.8741,398.7551 125.2441,404.3451 C131.0466,411.760933 136.596176,419.470864 141.994503,427.1976 L145.162684,431.736512 C154.417804,444.918943 167.213572,462.776892 161.4841,479.0151 C160.7041,481.2451 157.4441,482.0451 156.1731,479.7051 C152.0031,472.0051 149.6731,463.5251 145.7131,455.7351 C141.8241,448.0951 136.9841,441.0151 132.1831,433.9351 L129.414095,429.832137 C124.803794,422.979822 120.236433,416.053433 116.0031,408.9951 L113.055323,404.107864 C110.285593,399.492967 107.544153,394.724047 105.5031,389.7651 C98.2331648,391.517341 90.6256761,390.259965 83.6535591,387.228769 L83.5646175,387.71343 L83.3878247,388.584749 C82.392626,392.776322 76.6101959,395.64216 72.9156909,392.900155 C64.0738629,386.233793 60.473747,376.311502 59.5356807,365.702471 C57.753576,362.705975 56.2428912,359.541384 55.0109382,356.266658 C54.4300101,362.800453 51.9088328,369.134964 44.1419667,368.938048 C30.6632629,367.831881 29.3408755,355.102109 32.9850438,342.441018 C17.0283055,347.31419 15.1585063,324.748581 20.1942751,312.8565 C18.3244759,312.297693 16.5931026,311.184241 15.6020986,309.683683 L14.7751482,311.133841 C11.708395,316.443248 8.23196471,321.598397 3.38705598,324.35419 C-3.38218337,328.203404 -13.2240596,323.435332 -12.7741753,314.95749 C-11.3248974,301.142363 0.785277079,290.619723 8.15750832,279.547642 C6.84455903,279.732871 5.48022434,279.686043 4.14210669,279.436297 C-10.5929176,287.656069 -17.6264247,268.310104 -12.4364998,257.101703 C-8.63293185,247.031728 -1.74938621,238.371779 5.62913712,230.737871 L3.46613744,232.030051 C-0.436278206,234.328024 -4.78949016,236.546693 -9.07967018,235.645383 C-37.1507777,254.09018 -46.3644937,223.068581 -14.8641976,213.373226 L-14.8746844,213.228581 L-14.8746844,213.228581 C-18.0364592,210.179596 -19.4081347,205.354292 -16.9500252,200.53419 C-28.5043984,204.592566 -45.000159,195.410231 -34.8153639,182.860485 C-28.1719663,176.605383 -20.3351692,171.224393 -11.6468426,168.408505 C-12.0799481,166.105637 -12.2204714,163.762185 -12.0411469,161.404165 L-12.5595166,161.474674 C-18.0445238,162.264272 -24.8071667,164.503947 -28.1897939,158.597642 C-29.9054369,155.623581 -29.7040901,150.722312 -26.8915262,148.410079 C-17.2080008,140.448378 -6.16014077,133.825942 5.84097079,131.14117 C6.28141704,129.680155 6.74073955,128.227464 7.22627911,126.782058 C-3.0109501,126.591627 -14.5055485,112.993987 -2.74563367,105.289317 C7.59226897,100.021754 18.2426787,96.6335305 29.9155529,96.9477944 C23.0718572,90.1994442 27.1124272,77.9670838 36.2128856,76.086703 C30.2532284,63.3964746 44.9767172,56.8489619 55.959559,58.8500533 C55.5558166,53.212033 58.5749708,46.9277944 64.3825692,45.512566 C61.3361493,27.6713223 80.2281473,29.3591904 92.0646158,33.5882259 C88.1005996,26.7097995 92.1747274,18.6180228 99.1673359,16.2058909 C110.618938,13.6137335 121.574514,24.5213985 130.294301,31.210434 C127.321289,24.2321091 129.828687,17.7980228 136.910433,15.0175152 C144.204013,12.1631244 152.062833,17.6793934 158.150429,21.4276675 C161.460068,17.2714746 167.111413,15.9166015 172.179691,16.173632 C172.721859,14.6127183 173.515711,13.3109162 174.53503,12.2817538 C174.506715,2.66444416 190.880829,-2.62289086 196.596143,6.3357132 C197.568271,0.106626904 200.131249,-5.88728173 203.757589,-10.1548198 Z M408.613334,164.279368 L408.802097,165.314774 L408.802097,165.314774 C409.044342,165.52914 409.271906,165.754952 409.504713,165.97452 C410.234596,166.147261 410.93931,166.329368 411.60732,166.515637 C410.634143,165.727896 409.631604,164.998429 408.613334,164.279368 Z M421.253092,139.040434 L421.030539,139.3483 C420.99267,139.399097 420.953869,139.449047 420.91332,139.497261 C421.530644,139.731052 422.146103,139.969929 422.759388,140.216361 L423.677644,140.591982 L424.001687,140.734546 C423.089334,140.162211 422.173835,139.595079 421.253092,139.040434 Z M273.85461,11.983099 L273.30261,12.1200692 C273.126563,12.1628642 272.960084,12.2026675 272.808026,12.2390888 C272.751397,12.2536574 272.698963,12.259901 272.647577,12.2807132 L272.792295,12.2494949 L272.792295,12.2494949 C272.531174,12.4482513 272.188255,12.6823883 271.903013,12.869698 C272.183011,12.8468046 272.461961,12.8197487 272.743007,12.8041396 C273.110046,12.5294188 273.481279,12.2557386 273.85461,11.983099 Z" id="Ink" fill="#000"/></g></g><g id="Face" transform="translate(491.000000, 669.000000) scale(1 1)" fill="#000"><g id="Face/Smile Teeth Gap" stroke="none" stroke-width="1" fill="none" fill-rule="evenodd"><path d="M97.7845492,210.375972 C114.535353,199.151206 199.315158,201.347449 207.139671,209.95871 C214.964185,218.56997 233.048485,243.147851 194.312305,255.218642 C155.576125,267.289433 107.626245,263.059951 95.1338032,248.283406 L94.3973783,247.40024 C82.5844002,233.030888 81.3687614,221.376242 97.7845492,210.375972 Z" id="teeth" fill="#FFF"/><path d="M170.814304,144.367155 C178.365682,148.9572 189.871664,159.660291 181.748119,171.039573 C172.185929,181.073062 158.418535,169.568982 151.634201,164.366134 C145.343449,160.333898 138.275437,170.704507 144.112,175.412823 C193.135736,211.708059 213.030606,145.567387 174.633685,138.970386 C170.406047,138.243425 168.835891,142.947174 170.814304,144.367155 Z M102.5879,56.8305 L104.465271,56.501905 L105.42752,56.3387999 C111.05159,55.4089332 117.7185,54.7869836 121.6029,59.2015 C123.7819,61.6775 124.5319,66.2795 121.6029,68.6495 C116.4509,72.8195 110.7549,71.2035 104.5809,71.5565 C99.4929,71.8485 94.6029,72.6905 89.7019,74.0915 C78.9499,77.1645 70.1889,82.7745 61.0059,88.9345 C59.8009,89.7425 58.5709,88.2015 59.1459,87.0745 C64.4469,76.6915 74.7199,68.1625 85.0099,62.9635 C90.5019,60.1885 96.5119,57.8865 102.5879,56.8305 Z M152.3251,200.2709 C168.7571,201.4639 204.3671,193.6199 219.1531,205.3859 C274.8801,274.9729 53.9501,292.8639 77.8101,215.8769 C93.0071,190.9839 127.9621,200.9889 152.3251,200.2709 Z M149.5081,242.2799 C145.4441,241.9489 140.5121,245.1679 139.3191,247.6549 C138.1261,250.1429 138.5871,255.3999 138.6231,256.3109 C145.7281,257.0269 152.8951,257.1359 160.0201,256.6689 C158.1691,250.5459 158.1091,243.2069 149.5081,242.2799 Z M182.3141,252.5519 C181.1721,244.9519 175.7361,243.1519 171.3361,244.2929 C166.8351,245.4589 164.1931,250.6399 164.4791,255.2529 C164.4981,255.5709 164.3141,255.8409 164.1931,256.0969 C170.3111,255.3739 176.3721,254.1839 182.3141,252.5519 Z M131.9201,243.6559 C129.3581,239.7579 123.2361,237.8769 119.3151,238.5639 C112.9121,239.9119 112.1541,248.0479 112.1541,249.7059 C118.0571,251.9559 124.3241,253.4499 130.3161,254.6399 C131.5191,254.8779 132.7251,255.0909 133.9331,255.2919 L134.011748,254.304092 C134.15754,252.1871 134.2657,247.2239 131.9201,243.6559 Z M204.3491,243.0129 C197.7841,232.8559 183.6721,240.1279 184.8381,251.2239 C186.0921,250.8289 187.3401,250.4159 188.5821,249.9829 C193.7401,248.1849 199.3981,246.0479 204.3491,243.0129 Z M152.6641,208.0169 C143.8321,207.2219 136.5871,207.4899 130.8271,208.5579 L130.652379,210.482006 C130.015019,217.153056 129.192942,223.71197 132.6961,226.3959 C135.5411,228.5759 144.9841,228.3679 151.3161,226.7899 C152.8801,226.3959 154.9131,212.5599 152.6641,208.0169 Z M166.3211,207.2219 C164.905471,213.79653 164.239607,221.779589 167.081976,224.150651 C170.083082,226.654129 179.744529,226.314877 182.27115,224.647162 C184.482348,223.187644 184.425998,216.473745 183.6051,208.9359 C178.7121,207.7829 170.1921,207.2219 166.3211,207.2219 Z M126.9211,208.6239 L124.0291,208.6499 L122.392162,208.671764 C118.252917,208.745333 113.787276,208.983724 109.5661,209.9049 C101.17981,228.02784 131.80542,231.15623 127.075335,209.29405 L126.9211,208.6239 Z M187.5011,209.0609 L187.447712,210.087554 C187.196335,215.178372 187.36295,221.882059 190.183224,223.691942 C194.333161,226.355124 202.125997,225.841302 206.347453,213.522759 C204.950453,209.847759 190.1341,209.3299 187.5011,209.0609 Z M106.2238,101.0002 C107.996997,101.0002 109.692946,101.602067 111.237462,102.715752 C112.757587,103.81185 114.13373,105.411583 115.279905,107.406824 C117.448889,111.182554 118.8048,116.395834 118.8048,122.1602 C118.8048,127.924566 117.448889,133.137846 115.279905,136.913576 C114.13373,138.908817 112.757587,140.50855 111.237462,141.604648 C109.692946,142.718333 107.996997,143.3202 106.2238,143.3202 C104.450603,143.3202 102.754654,142.718333 101.210138,141.604648 C99.6900132,140.50855 98.3138701,138.908817 97.1676955,136.913576 C94.9987108,133.137846 93.6428,127.924566 93.6428,122.1602 C93.6428,116.395834 94.9987108,111.182554 97.1676955,107.406824 C98.3138701,105.411583 99.6900132,103.81185 101.210138,102.715752 C102.754654,101.602067 104.450603,101.0002 106.2238,101.0002 Z M218.464,101.0002 C220.237197,101.0002 221.933146,101.602067 223.477662,102.715752 C224.997787,103.81185 226.37393,105.411583 227.520105,107.406824 C229.689089,111.182554 231.045,116.395834 231.045,122.1602 C231.045,127.924566 229.689089,133.137846 227.520105,136.913576 C226.37393,138.908817 224.997787,140.50855 223.477662,141.604648 C221.933146,142.718333 220.237197,143.3202 218.464,143.3202 C216.690803,143.3202 214.994854,142.718333 213.450338,141.604648 C211.930213,140.50855 210.55407,138.908817 209.407895,136.913576 C207.238911,133.137846 205.883,127.924566 205.883,122.1602 C205.883,116.395834 207.238911,111.182554 209.407895,107.406824 C210.55407,105.411583 211.930213,103.81185 213.450338,102.715752 C214.994854,101.602067 216.690803,101.0002 218.464,101.0002 Z M203.192876,52.1793876 L204.629806,52.4734684 L205.583101,52.6756041 C221.082639,56.0094915 240.733069,62.5816831 247.988459,77.6308459 C248.270623,79.8027272 247.97249,80.2682047 247.730054,80.5723213 L247.649336,80.6735209 C247.449568,80.9332186 247.290169,81.2912104 246.348782,81.5868073 C246.087547,81.5245653 245.823712,81.4586426 245.557082,81.3887687 C242.162766,80.499243 239.477205,79.2737961 236.877298,78.0022488 L234.058339,76.6134493 C230.787784,75.0098309 227.488352,73.4645766 223.991711,72.3238115 C216.52958,69.8898666 208.854137,68.1753043 201.059777,67.259767 C199.37041,67.0615005 197.743655,66.4913394 196.460262,65.5141761 C195.242065,64.5866523 194.311441,63.3024737 193.887128,61.5955207 C193.33722,59.3864508 193.495251,57.7140037 194.680513,55.7210991 C195.571756,54.2244705 196.846982,53.1871113 198.311265,52.5914244 C199.804038,51.9841473 201.503545,51.840982 203.192876,52.1793876 Z" id="Ink" fill="#000"/></g></g><g id="Beard" transform="translate(454.999934, 820.999659) scale(1 1)" fill="#000"><g id="Beard/None" stroke="none" stroke-width="1" fill="none" fill-rule="evenodd" fill-opacity="0"/></g><g id="Mask" transform="translate(360.000000, 783.000000) scale(1 1)" fill="#000"><g id="Mask/None" stroke="none" stroke-width="1" fill="none" fill-rule="evenodd" fill-opacity="0"/></g><g id="Accessories" transform="translate(379.000000, 724.000000) scale(1 1)" fill="#000"><g id="Accessories/None" stroke="none" stroke-width="1" fill="none" fill-rule="evenodd" fill-opacity="0"/></g></g></svg>